<svg width="59" height="48" viewBox="0 0 59 48" fill="none" xmlns="http://www.w3.org/2000/svg">
<path d="M29.513 47.9999C29.0941 48.0028 28.6818 47.8953 28.3173 47.6884C25.1964 45.8791 2.08274 31.3569 1.20986 30.9135C0.545559 30.6029 0.0919459 29.9666 0.0141161 29.2361V8.86667C-0.00307316 8.10633 0.372037 7.3908 1.00658 6.97353L1.17398 6.87767C3.41002 5.48776 10.8953 0.910633 12.0791 0.251622C12.3508 0.0900869 12.6601 0.00328679 12.9759 0C13.272 0.00335693 13.563 0.0772867 13.8249 0.215676C13.8249 0.215676 24.2996 7.0574 25.9019 7.66848C27.0261 8.18606 28.252 8.44402 29.4891 8.42335C30.8909 8.45271 32.2761 8.11398 33.5068 7.44082C35.0732 6.61406 45.0816 0.251622 45.1892 0.251622C45.4415 0.0989042 45.7314 0.0200409 46.0262 0.023964C46.3423 0.0255143 46.652 0.112439 46.923 0.275586C48.2862 1.03045 57.5651 6.7219 57.9596 6.97353C58.6123 7.36807 59.0079 8.07903 58.9999 8.84272V29.2121C58.9268 29.9444 58.4717 30.5827 57.8042 30.8896C56.9313 31.3688 33.8894 45.8911 30.7087 47.6644C30.3466 47.8798 29.9341 47.9955 29.513 47.9999Z" fill="url(#paint0_linear_4509_3)"/>
<path d="M29.3933 48L29.5129 47.9999C29.9318 48.0028 30.3441 47.8954 30.7086 47.6884C33.8295 45.8791 56.9312 31.3569 57.8041 30.9136C58.4716 30.6067 58.9266 29.9683 58.9998 29.2361V8.86668C59.0037 8.52186 58.9258 8.18103 58.7726 7.87219L29.3933 24.0359V48Z" fill="url(#paint1_linear_4509_3)"/>
<path d="M29.2913 47.7128L29.1729 47.7127C28.7585 47.7155 28.3506 47.6092 27.99 47.4045C24.9023 45.6144 2.04676 31.247 1.18315 30.8083C0.522812 30.5047 0.072594 29.8732 0.000185946 29.1487V8.99635C-0.00362501 8.6552 0.073379 8.318 0.224951 8.01245L29.2913 24.0039V47.7128Z" fill="url(#paint2_linear_4509_3)"/>
<defs>
<linearGradient id="paint0_linear_4509_3" x1="-0.0222801" y1="0.438626" x2="58.4219" y2="-0.0131268" gradientUnits="userSpaceOnUse">
<stop offset="1e-07" stop-color="#FF9200"/>
<stop offset="0.337553" stop-color="#F36D00"/>
<stop offset="0.56729" stop-color="#F83C72"/>
<stop offset="0.78" stop-color="#FC1CBE"/>
<stop offset="0.93" stop-color="#FE08ED"/>
<stop offset="1" stop-color="#FF00FF"/>
</linearGradient>
<linearGradient id="paint1_linear_4509_3" x1="16.3962" y1="42.9909" x2="76.0402" y2="10.0343" gradientUnits="userSpaceOnUse">
<stop stop-color="#EE0A3F"/>
<stop offset="1" stop-color="#EE0A3F" stop-opacity="0"/>
</linearGradient>
<linearGradient id="paint2_linear_4509_3" x1="22.1951" y1="34.3751" x2="-6.64503" y2="11.1905" gradientUnits="userSpaceOnUse">
<stop stop-color="#ED6600"/>
<stop offset="1" stop-color="#F98200"/>
</linearGradient>
</defs>
</svg>
