<svg width="48" height="48" viewBox="0 0 48 48" fill="none" xmlns="http://www.w3.org/2000/svg">
<path fill-rule="evenodd" clip-rule="evenodd" d="M24.0003 0C10.479 0 0 9.90435 0 23.2808C0 30.2781 2.86845 36.324 7.53812 40.5011C7.92927 40.8536 8.1659 41.3414 8.18521 41.8677L8.3156 46.1366C8.35906 47.4984 9.76431 48.3821 11.0102 47.8364L15.7716 45.7358C16.1773 45.5571 16.6264 45.5233 17.0513 45.6392C19.2389 46.2428 21.5713 46.5616 24.0003 46.5616C37.5216 46.5616 48.0006 36.6572 48.0006 23.2808C48.0006 9.90435 37.5216 0 24.0003 0Z" fill="url(#paint0_linear_4508_24)"/>
<path fill-rule="evenodd" clip-rule="evenodd" d="M9.59042 30.0897L16.6408 18.9056C17.7611 17.1285 20.166 16.6843 21.8465 17.9446L27.453 22.1507C27.9697 22.5371 28.6748 22.5322 29.1866 22.1459L36.7586 16.3994C37.7678 15.6315 39.091 16.8436 38.4101 17.9157L31.3645 29.0949C30.2442 30.872 27.8393 31.3162 26.1588 30.0559L20.5523 25.8498C20.0356 25.4635 19.3306 25.4683 18.8187 25.8546L11.2419 31.606C10.2327 32.3738 8.90952 31.1617 9.59042 30.0897Z" fill="white"/>
<defs>
<linearGradient id="paint0_linear_4508_24" x1="-0.000301846" y1="0" x2="-0.000301846" y2="48.0006" gradientUnits="userSpaceOnUse">
<stop stop-color="#00B2FF"/>
<stop offset="1" stop-color="#006AFF"/>
</linearGradient>
</defs>
</svg>
