<svg width="43" height="48" viewBox="0 0 43 48" fill="none" xmlns="http://www.w3.org/2000/svg">
<g clip-path="url(#clip0_4508_4)">
<path d="M29.42 35.9297C29.8791 32.1719 27.4503 29.7734 21.0311 27.7344C17.9235 26.6797 16.4561 25.2969 16.4914 23.3906C16.6209 21.2813 18.5945 19.7422 21.2155 19.6914C23.0322 19.7266 25.049 20.168 27.0069 21.4727C27.2384 21.6172 27.4032 21.5977 27.5366 21.3945C27.7171 21.1055 28.1684 20.4062 28.3214 20.1562C28.4234 19.9922 28.443 19.7812 28.1841 19.5937C27.8113 19.3203 26.7715 18.7617 26.2104 18.5312C24.688 17.8984 22.9812 17.5 21.1645 17.5039C17.3311 17.5195 14.3098 19.9336 14.0547 23.1562C13.89 25.4805 15.0474 27.3711 17.5312 28.8086C18.0569 29.1133 20.9056 30.2422 22.0395 30.5937C25.6022 31.6992 27.4542 33.6797 27.0187 35.9883C26.6224 38.082 24.4094 39.4375 21.3568 39.4766C18.9359 39.3828 16.7621 38.4023 15.071 37.0937C15.0278 37.0625 14.8159 36.8984 14.7885 36.875C14.5805 36.7109 14.353 36.7227 14.2117 36.9336C14.1097 37.0898 13.4583 38.0273 13.2935 38.2734C13.1405 38.4883 13.2229 38.6094 13.3838 38.7422C14.0901 39.3281 15.0239 39.9688 15.6635 40.293C17.4174 41.1836 19.3204 41.6719 21.345 41.7461C22.6477 41.832 24.2878 41.5547 25.5159 41.0391C27.7132 40.1055 29.1336 38.25 29.42 35.9297ZM21.498 2.80469C17.3428 2.80469 13.9567 6.70312 13.7997 11.582H29.2003C29.0394 6.70312 25.6533 2.80469 21.498 2.80469ZM37.2714 48H37.1105L5.39903 47.9961C3.24099 47.9141 1.65581 46.1758 1.44 44.0156L1.42039 43.625L0.00392372 12.5703C0 12.5469 0 12.5234 0 12.5C0 12 0.404143 11.5898 0.902455 11.582H10.9001C11.1473 5.13672 15.7969 0 21.498 0C27.1992 0 31.8527 5.13672 32.096 11.582H42.0622H42.0779C42.588 11.582 43 11.9922 43 12.5C43 12.5156 43 12.5312 43 12.5469L41.4462 43.7227L41.4305 43.9883C41.2461 46.1758 39.4687 47.9414 37.2714 48Z" fill="#EE4D2D"/>
</g>
<defs>
<clipPath id="clip0_4508_4">
<rect width="43" height="48" fill="white"/>
</clipPath>
</defs>
</svg>
