<svg width="48" height="48" viewBox="0 0 48 48" fill="none" xmlns="http://www.w3.org/2000/svg">
<path fill-rule="evenodd" clip-rule="evenodd" d="M46.9968 12.465C46.4448 10.4002 44.8186 8.77351 42.7533 8.22154C39.0101 7.21875 23.9998 7.21875 23.9998 7.21875C23.9998 7.21875 8.98995 7.21875 5.24667 8.22154C3.18143 8.77351 1.55515 10.4002 1.00319 12.465C0 16.2087 0 24.0185 0 24.0185C0 24.0185 0 31.8286 1.00319 35.5719C1.55515 37.6367 3.18143 39.2638 5.24667 39.8154C8.98995 40.8186 23.9998 40.8186 23.9998 40.8186C23.9998 40.8186 39.0101 40.8186 42.7533 39.8154C44.8186 39.2638 46.4448 37.6367 46.9968 35.5719C48 31.8286 48 24.0185 48 24.0185C48 24.0185 48 16.2087 46.9968 12.465Z" fill="#FF0000"/>
<path fill-rule="evenodd" clip-rule="evenodd" d="M19.2 31.2186L31.67 24.0189L19.2 16.8184V31.2186Z" fill="white"/>
</svg>
